<mxfile host="app.diagrams.net" agent="Mozilla/5.0 (Windows NT 10.0; Win64; x64; rv:143.0) Gecko/20100101 Firefox/143.0" version="28.2.5">
  <diagram name="Page-1" id="WH586lennzdoQrlpDGxW">
    <mxGraphModel grid="1" page="1" gridSize="10" guides="1" tooltips="1" connect="1" arrows="1" fold="1" pageScale="1" pageWidth="827" pageHeight="1169" math="0" shadow="0">
      <root>
        <mxCell id="0" />
        <mxCell id="1" parent="0" />
        <mxCell id="orXWJSZxYOKjRJzsYH1O-1" value="V_sugerencias" style="rounded=0;whiteSpace=wrap;html=1;fillColor=#ffe6cc;strokeColor=#d79b00;" vertex="1" parent="1">
          <mxGeometry x="-660" y="40" width="120" height="60" as="geometry" />
        </mxCell>
        <mxCell id="orXWJSZxYOKjRJzsYH1O-2" value="&lt;div&gt;C_sugerencia&lt;/div&gt;&lt;div&gt;(route.ts)&lt;/div&gt;" style="rounded=0;whiteSpace=wrap;html=1;fillColor=#e1d5e7;strokeColor=#9673a6;" vertex="1" parent="1">
          <mxGeometry x="-305" y="40" width="120" height="60" as="geometry" />
        </mxCell>
        <mxCell id="orXWJSZxYOKjRJzsYH1O-3" value="sugerencias" style="rounded=0;whiteSpace=wrap;html=1;fillColor=#d5e8d4;strokeColor=#82b366;" vertex="1" parent="1">
          <mxGeometry x="35" y="40" width="120" height="60" as="geometry" />
        </mxCell>
        <mxCell id="orXWJSZxYOKjRJzsYH1O-4" value="Actor" style="shape=umlActor;verticalLabelPosition=bottom;verticalAlign=top;html=1;outlineConnect=0;" vertex="1" parent="1">
          <mxGeometry x="-800" y="40" width="30" height="60" as="geometry" />
        </mxCell>
        <mxCell id="orXWJSZxYOKjRJzsYH1O-5" style="edgeStyle=orthogonalEdgeStyle;rounded=0;orthogonalLoop=1;jettySize=auto;html=1;exitX=0.5;exitY=1;exitDx=0;exitDy=0;" edge="1" parent="1" source="orXWJSZxYOKjRJzsYH1O-1" target="orXWJSZxYOKjRJzsYH1O-1">
          <mxGeometry relative="1" as="geometry" />
        </mxCell>
        <mxCell id="orXWJSZxYOKjRJzsYH1O-6" value="" style="endArrow=none;dashed=1;html=1;dashPattern=1 3;strokeWidth=2;rounded=0;entryX=0.5;entryY=0.5;entryDx=0;entryDy=0;entryPerimeter=0;" edge="1" parent="1" target="orXWJSZxYOKjRJzsYH1O-4">
          <mxGeometry width="50" height="50" relative="1" as="geometry">
            <mxPoint x="-785" y="1240" as="sourcePoint" />
            <mxPoint x="-763" y="170" as="targetPoint" />
          </mxGeometry>
        </mxCell>
        <mxCell id="orXWJSZxYOKjRJzsYH1O-7" value="" style="endArrow=none;dashed=1;html=1;dashPattern=1 3;strokeWidth=2;rounded=0;entryX=0.5;entryY=1;entryDx=0;entryDy=0;" edge="1" parent="1" target="orXWJSZxYOKjRJzsYH1O-2">
          <mxGeometry width="50" height="50" relative="1" as="geometry">
            <mxPoint x="-240" y="1240" as="sourcePoint" />
            <mxPoint x="-5" y="370" as="targetPoint" />
          </mxGeometry>
        </mxCell>
        <mxCell id="orXWJSZxYOKjRJzsYH1O-8" value="" style="endArrow=none;dashed=1;html=1;dashPattern=1 3;strokeWidth=2;rounded=0;entryX=0.5;entryY=1;entryDx=0;entryDy=0;" edge="1" parent="1" target="orXWJSZxYOKjRJzsYH1O-3">
          <mxGeometry width="50" height="50" relative="1" as="geometry">
            <mxPoint x="95" y="1240" as="sourcePoint" />
            <mxPoint x="165" y="370" as="targetPoint" />
          </mxGeometry>
        </mxCell>
        <mxCell id="orXWJSZxYOKjRJzsYH1O-10" value="" style="endArrow=classic;html=1;rounded=0;" edge="1" parent="1">
          <mxGeometry width="50" height="50" relative="1" as="geometry">
            <mxPoint x="-780" y="160" as="sourcePoint" />
            <mxPoint x="-600" y="160" as="targetPoint" />
          </mxGeometry>
        </mxCell>
        <mxCell id="orXWJSZxYOKjRJzsYH1O-11" value="Accede a la pagina de sugerencias" style="edgeLabel;html=1;align=center;verticalAlign=middle;resizable=0;points=[];" connectable="0" vertex="1" parent="orXWJSZxYOKjRJzsYH1O-10">
          <mxGeometry x="-0.1758" y="4" relative="1" as="geometry">
            <mxPoint x="16" y="-6" as="offset" />
          </mxGeometry>
        </mxCell>
        <mxCell id="orXWJSZxYOKjRJzsYH1O-58" value="&lt;div&gt;C_reviews&lt;/div&gt;&lt;div&gt;(route.ts)&lt;/div&gt;" style="rounded=0;whiteSpace=wrap;html=1;fillColor=#e1d5e7;strokeColor=#9673a6;" vertex="1" parent="1">
          <mxGeometry x="-470" y="40" width="120" height="60" as="geometry" />
        </mxCell>
        <mxCell id="orXWJSZxYOKjRJzsYH1O-59" value="" style="endArrow=none;dashed=1;html=1;dashPattern=1 3;strokeWidth=2;rounded=0;entryX=0.5;entryY=1;entryDx=0;entryDy=0;" edge="1" parent="1" target="orXWJSZxYOKjRJzsYH1O-58">
          <mxGeometry width="50" height="50" relative="1" as="geometry">
            <mxPoint x="-405" y="1240" as="sourcePoint" />
            <mxPoint x="-170" y="370" as="targetPoint" />
          </mxGeometry>
        </mxCell>
        <mxCell id="orXWJSZxYOKjRJzsYH1O-61" value="" style="endArrow=classic;html=1;rounded=0;" edge="1" parent="1">
          <mxGeometry width="50" height="50" relative="1" as="geometry">
            <mxPoint x="-780" y="200" as="sourcePoint" />
            <mxPoint x="-600" y="200" as="targetPoint" />
          </mxGeometry>
        </mxCell>
        <mxCell id="orXWJSZxYOKjRJzsYH1O-62" value="Completa formulario solo texto" style="text;html=1;align=center;verticalAlign=middle;resizable=0;points=[];autosize=1;strokeColor=none;fillColor=none;" vertex="1" parent="1">
          <mxGeometry x="-790" y="168" width="190" height="30" as="geometry" />
        </mxCell>
        <mxCell id="orXWJSZxYOKjRJzsYH1O-63" value="" style="endArrow=classic;html=1;rounded=0;" edge="1" parent="1">
          <mxGeometry width="50" height="50" relative="1" as="geometry">
            <mxPoint x="-785" y="236.81999999999994" as="sourcePoint" />
            <mxPoint x="-600" y="237" as="targetPoint" />
          </mxGeometry>
        </mxCell>
        <mxCell id="orXWJSZxYOKjRJzsYH1O-64" value="Clic en botón Enviar sugerencia" style="text;html=1;align=center;verticalAlign=middle;resizable=0;points=[];autosize=1;strokeColor=none;fillColor=none;" vertex="1" parent="1">
          <mxGeometry x="-785" y="208" width="190" height="30" as="geometry" />
        </mxCell>
        <mxCell id="orXWJSZxYOKjRJzsYH1O-65" value="" style="endArrow=classic;html=1;rounded=0;" edge="1" parent="1">
          <mxGeometry width="50" height="50" relative="1" as="geometry">
            <mxPoint x="-600" y="260" as="sourcePoint" />
            <mxPoint x="-600" y="280" as="targetPoint" />
            <Array as="points">
              <mxPoint x="-550" y="260" />
              <mxPoint x="-550" y="280" />
            </Array>
          </mxGeometry>
        </mxCell>
        <mxCell id="orXWJSZxYOKjRJzsYH1O-66" value="Válida texto no vacío" style="text;html=1;align=center;verticalAlign=middle;resizable=0;points=[];autosize=1;strokeColor=none;fillColor=none;" vertex="1" parent="1">
          <mxGeometry x="-590" y="230" width="130" height="30" as="geometry" />
        </mxCell>
        <mxCell id="orXWJSZxYOKjRJzsYH1O-67" value="" style="endArrow=classic;html=1;rounded=0;" edge="1" parent="1">
          <mxGeometry width="50" height="50" relative="1" as="geometry">
            <mxPoint x="-600" y="320" as="sourcePoint" />
            <mxPoint x="-250" y="320" as="targetPoint" />
          </mxGeometry>
        </mxCell>
        <mxCell id="orXWJSZxYOKjRJzsYH1O-68" value="POST /api/sugerencia(texto, imagen = &quot;&quot;)" style="text;html=1;align=center;verticalAlign=middle;resizable=0;points=[];autosize=1;strokeColor=none;fillColor=none;" vertex="1" parent="1">
          <mxGeometry x="-575" y="290" width="240" height="30" as="geometry" />
        </mxCell>
        <mxCell id="orXWJSZxYOKjRJzsYH1O-70" value="" style="endArrow=classic;html=1;rounded=0;" edge="1" parent="1">
          <mxGeometry width="50" height="50" relative="1" as="geometry">
            <mxPoint x="-240" y="350" as="sourcePoint" />
            <mxPoint x="90" y="350" as="targetPoint" />
          </mxGeometry>
        </mxCell>
        <mxCell id="orXWJSZxYOKjRJzsYH1O-71" value="INSERT INTO sugerencias(id, texto, imagen )" style="text;html=1;align=center;verticalAlign=middle;resizable=0;points=[];autosize=1;strokeColor=none;fillColor=none;" vertex="1" parent="1">
          <mxGeometry x="-210" y="320" width="270" height="30" as="geometry" />
        </mxCell>
        <mxCell id="orXWJSZxYOKjRJzsYH1O-72" value="" style="endArrow=classic;html=1;rounded=0;dashed=1;" edge="1" parent="1">
          <mxGeometry width="50" height="50" relative="1" as="geometry">
            <mxPoint x="90" y="420" as="sourcePoint" />
            <mxPoint x="-240" y="420" as="targetPoint" />
          </mxGeometry>
        </mxCell>
        <mxCell id="orXWJSZxYOKjRJzsYH1O-73" value="Confirmación de query" style="text;html=1;align=center;verticalAlign=middle;resizable=0;points=[];autosize=1;strokeColor=none;fillColor=none;" vertex="1" parent="1">
          <mxGeometry x="-170" y="390" width="140" height="30" as="geometry" />
        </mxCell>
        <mxCell id="orXWJSZxYOKjRJzsYH1O-74" value="" style="endArrow=classic;html=1;rounded=0;" edge="1" parent="1">
          <mxGeometry width="50" height="50" relative="1" as="geometry">
            <mxPoint x="-240" y="450" as="sourcePoint" />
            <mxPoint x="-600" y="450" as="targetPoint" />
          </mxGeometry>
        </mxCell>
        <mxCell id="orXWJSZxYOKjRJzsYH1O-75" value="{ id, texto, imagen }" style="text;html=1;align=center;verticalAlign=middle;resizable=0;points=[];autosize=1;strokeColor=none;fillColor=none;" vertex="1" parent="1">
          <mxGeometry x="-390" y="420" width="130" height="30" as="geometry" />
        </mxCell>
        <mxCell id="orXWJSZxYOKjRJzsYH1O-76" value="" style="endArrow=classic;html=1;rounded=0;" edge="1" parent="1">
          <mxGeometry width="50" height="50" relative="1" as="geometry">
            <mxPoint x="-600" y="480" as="sourcePoint" />
            <mxPoint x="-600" y="500" as="targetPoint" />
            <Array as="points">
              <mxPoint x="-550" y="480" />
              <mxPoint x="-550" y="500" />
            </Array>
          </mxGeometry>
        </mxCell>
        <mxCell id="orXWJSZxYOKjRJzsYH1O-77" value="Muestra mensaje de confirmación" style="text;html=1;align=center;verticalAlign=middle;resizable=0;points=[];autosize=1;strokeColor=none;fillColor=none;" vertex="1" parent="1">
          <mxGeometry x="-605" y="458" width="200" height="30" as="geometry" />
        </mxCell>
        <mxCell id="orXWJSZxYOKjRJzsYH1O-78" value="" style="endArrow=classic;html=1;rounded=0;" edge="1" parent="1">
          <mxGeometry width="50" height="50" relative="1" as="geometry">
            <mxPoint x="-600" y="522" as="sourcePoint" />
            <mxPoint x="-600" y="542" as="targetPoint" />
            <Array as="points">
              <mxPoint x="-550" y="522" />
              <mxPoint x="-550" y="542" />
            </Array>
          </mxGeometry>
        </mxCell>
        <mxCell id="orXWJSZxYOKjRJzsYH1O-79" value="Limpia el formulario" style="text;html=1;align=center;verticalAlign=middle;resizable=0;points=[];autosize=1;strokeColor=none;fillColor=none;" vertex="1" parent="1">
          <mxGeometry x="-575" y="500" width="130" height="30" as="geometry" />
        </mxCell>
        <mxCell id="orXWJSZxYOKjRJzsYH1O-80" value="" style="endArrow=classic;html=1;rounded=0;" edge="1" parent="1">
          <mxGeometry width="50" height="50" relative="1" as="geometry">
            <mxPoint x="-600" y="580" as="sourcePoint" />
            <mxPoint x="-780" y="580" as="targetPoint" />
          </mxGeometry>
        </mxCell>
        <mxCell id="orXWJSZxYOKjRJzsYH1O-81" value="Muestra &quot;¡Sugerencia enviada correctamente!&quot;" style="text;html=1;align=center;verticalAlign=middle;resizable=0;points=[];autosize=1;strokeColor=none;fillColor=none;" vertex="1" parent="1">
          <mxGeometry x="-785" y="548" width="270" height="30" as="geometry" />
        </mxCell>
        <mxCell id="orXWJSZxYOKjRJzsYH1O-82" style="edgeStyle=orthogonalEdgeStyle;rounded=0;orthogonalLoop=1;jettySize=auto;html=1;exitX=0.5;exitY=1;exitDx=0;exitDy=0;" edge="1" parent="1">
          <mxGeometry relative="1" as="geometry">
            <mxPoint x="-600" y="570" as="sourcePoint" />
            <mxPoint x="-600" y="570" as="targetPoint" />
          </mxGeometry>
        </mxCell>
        <mxCell id="orXWJSZxYOKjRJzsYH1O-83" value="" style="endArrow=classic;html=1;rounded=0;" edge="1" parent="1">
          <mxGeometry width="50" height="50" relative="1" as="geometry">
            <mxPoint x="-780" y="630" as="sourcePoint" />
            <mxPoint x="-600" y="630" as="targetPoint" />
          </mxGeometry>
        </mxCell>
        <mxCell id="orXWJSZxYOKjRJzsYH1O-84" value="Accede a la pagina de sugerencias" style="edgeLabel;html=1;align=center;verticalAlign=middle;resizable=0;points=[];" connectable="0" vertex="1" parent="orXWJSZxYOKjRJzsYH1O-83">
          <mxGeometry x="-0.1758" y="4" relative="1" as="geometry">
            <mxPoint x="16" y="-6" as="offset" />
          </mxGeometry>
        </mxCell>
        <mxCell id="orXWJSZxYOKjRJzsYH1O-85" value="" style="endArrow=classic;html=1;rounded=0;" edge="1" parent="1">
          <mxGeometry width="50" height="50" relative="1" as="geometry">
            <mxPoint x="-780" y="670" as="sourcePoint" />
            <mxPoint x="-600" y="670" as="targetPoint" />
          </mxGeometry>
        </mxCell>
        <mxCell id="orXWJSZxYOKjRJzsYH1O-86" value="Completa formulario con texto e imagen" style="text;html=1;align=center;verticalAlign=middle;resizable=0;points=[];autosize=1;strokeColor=none;fillColor=none;" vertex="1" parent="1">
          <mxGeometry x="-800" y="638" width="240" height="30" as="geometry" />
        </mxCell>
        <mxCell id="orXWJSZxYOKjRJzsYH1O-87" value="" style="endArrow=classic;html=1;rounded=0;" edge="1" parent="1">
          <mxGeometry width="50" height="50" relative="1" as="geometry">
            <mxPoint x="-785" y="706.8199999999999" as="sourcePoint" />
            <mxPoint x="-600" y="707" as="targetPoint" />
          </mxGeometry>
        </mxCell>
        <mxCell id="orXWJSZxYOKjRJzsYH1O-88" value="Clic en botón Enviar sugerencia" style="text;html=1;align=center;verticalAlign=middle;resizable=0;points=[];autosize=1;strokeColor=none;fillColor=none;" vertex="1" parent="1">
          <mxGeometry x="-785" y="678" width="190" height="30" as="geometry" />
        </mxCell>
        <mxCell id="orXWJSZxYOKjRJzsYH1O-89" value="" style="endArrow=classic;html=1;rounded=0;" edge="1" parent="1">
          <mxGeometry width="50" height="50" relative="1" as="geometry">
            <mxPoint x="-600" y="730" as="sourcePoint" />
            <mxPoint x="-600" y="750" as="targetPoint" />
            <Array as="points">
              <mxPoint x="-550" y="730" />
              <mxPoint x="-550" y="750" />
            </Array>
          </mxGeometry>
        </mxCell>
        <mxCell id="orXWJSZxYOKjRJzsYH1O-90" value="Válida texto no vacío" style="text;html=1;align=center;verticalAlign=middle;resizable=0;points=[];autosize=1;strokeColor=none;fillColor=none;" vertex="1" parent="1">
          <mxGeometry x="-590" y="700" width="130" height="30" as="geometry" />
        </mxCell>
        <mxCell id="orXWJSZxYOKjRJzsYH1O-91" value="" style="endArrow=classic;html=1;rounded=0;" edge="1" parent="1">
          <mxGeometry width="50" height="50" relative="1" as="geometry">
            <mxPoint x="-600" y="920" as="sourcePoint" />
            <mxPoint x="-250" y="920" as="targetPoint" />
          </mxGeometry>
        </mxCell>
        <mxCell id="orXWJSZxYOKjRJzsYH1O-92" value="POST /api/sugerencia(texto, imagen)" style="text;html=1;align=center;verticalAlign=middle;resizable=0;points=[];autosize=1;strokeColor=none;fillColor=none;" vertex="1" parent="1">
          <mxGeometry x="-565" y="890" width="220" height="30" as="geometry" />
        </mxCell>
        <mxCell id="orXWJSZxYOKjRJzsYH1O-93" value="" style="endArrow=classic;html=1;rounded=0;" edge="1" parent="1">
          <mxGeometry width="50" height="50" relative="1" as="geometry">
            <mxPoint x="-240" y="950" as="sourcePoint" />
            <mxPoint x="90" y="950" as="targetPoint" />
          </mxGeometry>
        </mxCell>
        <mxCell id="orXWJSZxYOKjRJzsYH1O-94" value="INSERT INTO sugerencias(id, texto, imagen )" style="text;html=1;align=center;verticalAlign=middle;resizable=0;points=[];autosize=1;strokeColor=none;fillColor=none;" vertex="1" parent="1">
          <mxGeometry x="-210" y="920" width="270" height="30" as="geometry" />
        </mxCell>
        <mxCell id="orXWJSZxYOKjRJzsYH1O-95" value="" style="endArrow=classic;html=1;rounded=0;dashed=1;" edge="1" parent="1">
          <mxGeometry width="50" height="50" relative="1" as="geometry">
            <mxPoint x="90" y="1020" as="sourcePoint" />
            <mxPoint x="-240" y="1020" as="targetPoint" />
          </mxGeometry>
        </mxCell>
        <mxCell id="orXWJSZxYOKjRJzsYH1O-96" value="Confirmación de query" style="text;html=1;align=center;verticalAlign=middle;resizable=0;points=[];autosize=1;strokeColor=none;fillColor=none;" vertex="1" parent="1">
          <mxGeometry x="-170" y="990" width="140" height="30" as="geometry" />
        </mxCell>
        <mxCell id="orXWJSZxYOKjRJzsYH1O-97" value="" style="endArrow=classic;html=1;rounded=0;" edge="1" parent="1">
          <mxGeometry width="50" height="50" relative="1" as="geometry">
            <mxPoint x="-240" y="1050" as="sourcePoint" />
            <mxPoint x="-600" y="1050" as="targetPoint" />
          </mxGeometry>
        </mxCell>
        <mxCell id="orXWJSZxYOKjRJzsYH1O-98" value="{ id, texto, imagen }" style="text;html=1;align=center;verticalAlign=middle;resizable=0;points=[];autosize=1;strokeColor=none;fillColor=none;" vertex="1" parent="1">
          <mxGeometry x="-405" y="1020" width="130" height="30" as="geometry" />
        </mxCell>
        <mxCell id="orXWJSZxYOKjRJzsYH1O-99" value="" style="endArrow=classic;html=1;rounded=0;" edge="1" parent="1">
          <mxGeometry width="50" height="50" relative="1" as="geometry">
            <mxPoint x="-600" y="1080" as="sourcePoint" />
            <mxPoint x="-600" y="1100" as="targetPoint" />
            <Array as="points">
              <mxPoint x="-550" y="1080" />
              <mxPoint x="-550" y="1100" />
            </Array>
          </mxGeometry>
        </mxCell>
        <mxCell id="orXWJSZxYOKjRJzsYH1O-100" value="Muestra mensaje de confirmación" style="text;html=1;align=center;verticalAlign=middle;resizable=0;points=[];autosize=1;strokeColor=none;fillColor=none;" vertex="1" parent="1">
          <mxGeometry x="-605" y="1058" width="200" height="30" as="geometry" />
        </mxCell>
        <mxCell id="orXWJSZxYOKjRJzsYH1O-101" value="" style="endArrow=classic;html=1;rounded=0;" edge="1" parent="1">
          <mxGeometry width="50" height="50" relative="1" as="geometry">
            <mxPoint x="-600" y="1122" as="sourcePoint" />
            <mxPoint x="-600" y="1142" as="targetPoint" />
            <Array as="points">
              <mxPoint x="-550" y="1122" />
              <mxPoint x="-550" y="1142" />
            </Array>
          </mxGeometry>
        </mxCell>
        <mxCell id="orXWJSZxYOKjRJzsYH1O-102" value="Limpia el formulario" style="text;html=1;align=center;verticalAlign=middle;resizable=0;points=[];autosize=1;strokeColor=none;fillColor=none;" vertex="1" parent="1">
          <mxGeometry x="-575" y="1100" width="130" height="30" as="geometry" />
        </mxCell>
        <mxCell id="orXWJSZxYOKjRJzsYH1O-103" value="" style="endArrow=classic;html=1;rounded=0;" edge="1" parent="1">
          <mxGeometry width="50" height="50" relative="1" as="geometry">
            <mxPoint x="-600" y="1180" as="sourcePoint" />
            <mxPoint x="-780" y="1180" as="targetPoint" />
          </mxGeometry>
        </mxCell>
        <mxCell id="orXWJSZxYOKjRJzsYH1O-104" value="Muestra &quot;¡Sugerencia enviada correctamente!&quot;" style="text;html=1;align=center;verticalAlign=middle;resizable=0;points=[];autosize=1;strokeColor=none;fillColor=none;" vertex="1" parent="1">
          <mxGeometry x="-785" y="1148" width="270" height="30" as="geometry" />
        </mxCell>
        <mxCell id="orXWJSZxYOKjRJzsYH1O-105" value="" style="endArrow=classic;html=1;rounded=0;" edge="1" parent="1">
          <mxGeometry width="50" height="50" relative="1" as="geometry">
            <mxPoint x="-600" y="800" as="sourcePoint" />
            <mxPoint x="-410" y="800" as="targetPoint" />
          </mxGeometry>
        </mxCell>
        <mxCell id="orXWJSZxYOKjRJzsYH1O-106" value="post/api/reviews(imagen)" style="text;html=1;align=center;verticalAlign=middle;resizable=0;points=[];autosize=1;strokeColor=none;fillColor=none;" vertex="1" parent="1">
          <mxGeometry x="-585" y="768" width="160" height="30" as="geometry" />
        </mxCell>
        <mxCell id="orXWJSZxYOKjRJzsYH1O-107" value="" style="endArrow=classic;html=1;rounded=0;" edge="1" parent="1">
          <mxGeometry width="50" height="50" relative="1" as="geometry">
            <mxPoint x="-405" y="830" as="sourcePoint" />
            <mxPoint x="-405" y="840" as="targetPoint" />
            <Array as="points">
              <mxPoint x="-365" y="830" />
              <mxPoint x="-365" y="840" />
            </Array>
          </mxGeometry>
        </mxCell>
        <mxCell id="orXWJSZxYOKjRJzsYH1O-108" value="Procesa y guarda imagen" style="text;html=1;align=center;verticalAlign=middle;resizable=0;points=[];autosize=1;strokeColor=none;fillColor=none;" vertex="1" parent="1">
          <mxGeometry x="-405" y="810" width="160" height="30" as="geometry" />
        </mxCell>
        <mxCell id="orXWJSZxYOKjRJzsYH1O-111" value="" style="endArrow=classic;html=1;rounded=0;" edge="1" parent="1">
          <mxGeometry width="50" height="50" relative="1" as="geometry">
            <mxPoint x="-410" y="870" as="sourcePoint" />
            <mxPoint x="-600" y="870" as="targetPoint" />
          </mxGeometry>
        </mxCell>
        <mxCell id="orXWJSZxYOKjRJzsYH1O-112" value="{ url }" style="text;html=1;align=center;verticalAlign=middle;resizable=0;points=[];autosize=1;strokeColor=none;fillColor=none;" vertex="1" parent="1">
          <mxGeometry x="-535" y="840" width="50" height="30" as="geometry" />
        </mxCell>
        <mxCell id="orXWJSZxYOKjRJzsYH1O-113" value="" style="endArrow=none;dashed=1;html=1;dashPattern=1 3;strokeWidth=2;rounded=0;entryX=0.5;entryY=1;entryDx=0;entryDy=0;" edge="1" parent="1" target="orXWJSZxYOKjRJzsYH1O-1">
          <mxGeometry width="50" height="50" relative="1" as="geometry">
            <mxPoint x="-600" y="1240" as="sourcePoint" />
            <mxPoint x="-490" y="200" as="targetPoint" />
          </mxGeometry>
        </mxCell>
      </root>
    </mxGraphModel>
  </diagram>
</mxfile>
